<svg width="169" height="151" viewBox="0 0 169 151" fill="none" xmlns="http://www.w3.org/2000/svg">
<rect width="169" height="151" rx="10" fill="white"/>
<path d="M102 74.4443H72.7871C69.1973 74.4443 66.2871 71.5342 66.2871 67.9443C66.2871 64.3545 69.1973 61.4444 72.7871 61.4443H89V28H28V123H35.0166V53.2285L45.1963 60.2178L76.4717 81.6924L79.292 83.6289V123H89V83.6025L91.8555 81.6689C91.864 81.6632 91.8723 81.6571 91.8809 81.6514L123.562 60.1943L133.707 53.3242V123H141V28H120.128C116.538 28 113.628 25.0899 113.628 21.5C113.628 17.9101 116.538 15 120.128 15H154V136H120.707V77.8281L102 90.498V136H66.292V90.4717L48.0166 77.9229V136H15V15H102V74.4443Z" fill="black"/>
</svg>
